<svg xmlns="http://www.w3.org/2000/svg" viewBox="0 0 900 600">
  <defs>
    <linearGradient id="cardBg" x1="0%" y1="0%" x2="0%" y2="100%">
      <stop offset="0%" style="stop-color:#fafafa"/>
      <stop offset="100%" style="stop-color:#f0f0f0"/>
    </linearGradient>
    <filter id="cardShadow">
      <feDropShadow dx="0" dy="4" stdDeviation="8" flood-color="#000" flood-opacity="0.08"/>
    </filter>
    <filter id="innerShadow">
      <feDropShadow dx="0" dy="2" stdDeviation="4" flood-color="#000" flood-opacity="0.06"/>
    </filter>
  </defs>

  <!-- Page background -->
  <rect width="900" height="600" fill="#f5f5f5"/>

  <!-- Browser chrome -->
  <rect width="900" height="40" fill="#e8e8e8" rx="0"/>
  <circle cx="20" cy="20" r="6" fill="#ff5f57"/>
  <circle cx="40" cy="20" r="6" fill="#febc2e"/>
  <circle cx="60" cy="20" r="6" fill="#28c840"/>
  <rect x="200" y="8" width="500" height="24" rx="12" fill="#ffffff"/>
  <text x="450" y="25" font-family="system-ui, sans-serif" font-size="11" fill="#999" text-anchor="middle">outputs/crush_画像与追求策略_2026-03-10.html</text>

  <!-- Header bar with XHS red -->
  <rect y="40" width="900" height="56" fill="#FF2442"/>
  <text x="40" y="75" font-family="system-ui, 'PingFang SC', sans-serif" font-size="20" font-weight="700" fill="white">🔮 用户深度画像与追求策略报告</text>

  <!-- Tab bar -->
  <rect y="96" width="900" height="40" fill="white"/>
  <rect x="0" y="96" width="100" height="40" fill="#FF2442"/>
  <text x="50" y="121" font-family="system-ui, 'PingFang SC', sans-serif" font-size="13" fill="white" text-anchor="middle" font-weight="600">📊 总览</text>
  <text x="155" y="121" font-family="system-ui, 'PingFang SC', sans-serif" font-size="13" fill="#666" text-anchor="middle">🔍 深度画像</text>
  <text x="270" y="121" font-family="system-ui, 'PingFang SC', sans-serif" font-size="13" fill="#666" text-anchor="middle">💜 理想型画像</text>
  <text x="390" y="121" font-family="system-ui, 'PingFang SC', sans-serif" font-size="13" fill="#666" text-anchor="middle">📋 笔记一览</text>
  <text x="510" y="121" font-family="system-ui, 'PingFang SC', sans-serif" font-size="13" fill="#666" text-anchor="middle">🎯 追求策略</text>
  <text x="625" y="121" font-family="system-ui, 'PingFang SC', sans-serif" font-size="13" fill="#666" text-anchor="middle">💬 话术锦囊</text>
  <text x="730" y="121" font-family="system-ui, 'PingFang SC', sans-serif" font-size="13" fill="#666" text-anchor="middle">ℹ️ 方法论</text>
  <rect y="135" width="900" height="1" fill="#eee"/>

  <!-- Content area -->
  <rect y="136" width="900" height="464" fill="#fafafa"/>

  <!-- One-line profile card -->
  <rect x="30" y="152" width="840" height="70" rx="12" fill="white" filter="url(#cardShadow)"/>
  <text x="50" y="178" font-family="system-ui, 'PingFang SC', sans-serif" font-size="13" fill="#999">一句话画像</text>
  <text x="50" y="205" font-family="system-ui, 'PingFang SC', sans-serif" font-size="16" fill="#333" font-weight="600">「一个IT咨询师、环球旅行家和音乐追梦人——用脚步丈量75个国家，用音乐连接世界」</text>

  <!-- Tags row -->
  <rect x="50" y="236" width="72" height="26" rx="13" fill="#FFF0F0"/>
  <text x="86" y="254" font-family="system-ui, 'PingFang SC', sans-serif" font-size="11" fill="#FF2442" text-anchor="middle">环球旅行家</text>
  <rect x="130" y="236" width="60" height="26" rx="13" fill="#FFF0F0"/>
  <text x="160" y="254" font-family="system-ui, 'PingFang SC', sans-serif" font-size="11" fill="#FF2442" text-anchor="middle">IT咨询</text>
  <rect x="198" y="236" width="56" height="26" rx="13" fill="#FFF0F0"/>
  <text x="226" y="254" font-family="system-ui, 'PingFang SC', sans-serif" font-size="11" fill="#FF2442" text-anchor="middle">巨蟹座</text>
  <rect x="262" y="236" width="72" height="26" rx="13" fill="#FFF0F0"/>
  <text x="298" y="254" font-family="system-ui, 'PingFang SC', sans-serif" font-size="11" fill="#FF2442" text-anchor="middle">独立买房💪</text>
  <rect x="342" y="236" width="56" height="26" rx="13" fill="#FFF0F0"/>
  <text x="370" y="254" font-family="system-ui, 'PingFang SC', sans-serif" font-size="11" fill="#FF2442" text-anchor="middle">音乐控</text>
  <rect x="406" y="236" width="80" height="26" rx="13" fill="#FFF0F0"/>
  <text x="446" y="254" font-family="system-ui, 'PingFang SC', sans-serif" font-size="11" fill="#FF2442" text-anchor="middle">75/195国家</text>
  <rect x="494" y="236" width="64" height="26" rx="13" fill="#FFF0F0"/>
  <text x="526" y="254" font-family="system-ui, 'PingFang SC', sans-serif" font-size="11" fill="#FF2442" text-anchor="middle">自我成长</text>

  <!-- Left: Radar chart mock -->
  <rect x="30" y="278" width="420" height="290" rx="12" fill="white" filter="url(#cardShadow)"/>
  <text x="50" y="308" font-family="system-ui, 'PingFang SC', sans-serif" font-size="15" fill="#333" font-weight="600">五维画像雷达图</text>

  <!-- Radar chart (simplified) -->
  <g transform="translate(240, 435)">
    <!-- Pentagon grid lines -->
    <polygon points="0,-90 85.6,-27.8 52.9,72.8 -52.9,72.8 -85.6,-27.8" fill="none" stroke="#eee" stroke-width="1"/>
    <polygon points="0,-60 57,-18.5 35.3,48.5 -35.3,48.5 -57,-18.5" fill="none" stroke="#eee" stroke-width="1"/>
    <polygon points="0,-30 28.5,-9.3 17.6,24.3 -17.6,24.3 -28.5,-9.3" fill="none" stroke="#eee" stroke-width="1"/>
    <!-- Axis lines -->
    <line x1="0" y1="0" x2="0" y2="-90" stroke="#eee" stroke-width="1"/>
    <line x1="0" y1="0" x2="85.6" y2="-27.8" stroke="#eee" stroke-width="1"/>
    <line x1="0" y1="0" x2="52.9" y2="72.8" stroke="#eee" stroke-width="1"/>
    <line x1="0" y1="0" x2="-52.9" y2="72.8" stroke="#eee" stroke-width="1"/>
    <line x1="0" y1="0" x2="-85.6" y2="-27.8" stroke="#eee" stroke-width="1"/>
    <!-- Data polygon -->
    <polygon points="0,-85 77,-25 26.5,65.5 -47.6,58.2 -61,-20" fill="rgba(255,36,66,0.15)" stroke="#FF2442" stroke-width="2"/>
    <!-- Data dots -->
    <circle cx="0" cy="-85" r="4" fill="#FF2442"/>
    <circle cx="77" cy="-25" r="4" fill="#FF2442"/>
    <circle cx="26.5" cy="65.5" r="4" fill="#FF2442"/>
    <circle cx="-47.6" cy="58.2" r="4" fill="#FF2442"/>
    <circle cx="-61" cy="-20" r="4" fill="#FF2442"/>
    <!-- Labels -->
    <text x="0" y="-100" font-family="system-ui, 'PingFang SC', sans-serif" font-size="11" fill="#666" text-anchor="middle">开放性 95</text>
    <text x="100" y="-25" font-family="system-ui, 'PingFang SC', sans-serif" font-size="11" fill="#666" text-anchor="start">独立性 90</text>
    <text x="62" y="88" font-family="system-ui, 'PingFang SC', sans-serif" font-size="11" fill="#666" text-anchor="start">浪漫感性 80</text>
    <text x="-62" y="88" font-family="system-ui, 'PingFang SC', sans-serif" font-size="11" fill="#666" text-anchor="end">社交影响力 70</text>
    <text x="-100" y="-25" font-family="system-ui, 'PingFang SC', sans-serif" font-size="11" fill="#666" text-anchor="end">生活品质 85</text>
  </g>

  <!-- Right: Stats cards -->
  <rect x="470" y="278" width="400" height="130" rx="12" fill="white" filter="url(#cardShadow)"/>
  <text x="490" y="308" font-family="system-ui, 'PingFang SC', sans-serif" font-size="15" fill="#333" font-weight="600">基础数据</text>
  <!-- Stats grid -->
  <text x="530" y="348" font-family="system-ui, sans-serif" font-size="28" fill="#FF2442" text-anchor="middle" font-weight="700">91</text>
  <text x="530" y="368" font-family="system-ui, 'PingFang SC', sans-serif" font-size="11" fill="#999" text-anchor="middle">关注</text>
  <text x="630" y="348" font-family="system-ui, sans-serif" font-size="28" fill="#FF2442" text-anchor="middle" font-weight="700">5,272</text>
  <text x="630" y="368" font-family="system-ui, 'PingFang SC', sans-serif" font-size="11" fill="#999" text-anchor="middle">粉丝</text>
  <text x="760" y="348" font-family="system-ui, sans-serif" font-size="28" fill="#FF2442" text-anchor="middle" font-weight="700">5.2万</text>
  <text x="760" y="368" font-family="system-ui, 'PingFang SC', sans-serif" font-size="11" fill="#999" text-anchor="middle">获赞与收藏</text>
  <text x="530" y="398" font-family="system-ui, sans-serif" font-size="14" fill="#666" text-anchor="middle">📝 62条笔记</text>
  <text x="700" y="398" font-family="system-ui, sans-serif" font-size="14" fill="#666" text-anchor="middle">📍 上海 · 巨蟹座</text>

  <!-- Right bottom: Pursuit strategy preview -->
  <rect x="470" y="420" width="400" height="148" rx="12" fill="white" filter="url(#cardShadow)"/>
  <text x="490" y="450" font-family="system-ui, 'PingFang SC', sans-serif" font-size="15" fill="#333" font-weight="600">🎯 追求策略路线图</text>
  <!-- Timeline -->
  <circle cx="510" cy="478" r="8" fill="#FF2442"/>
  <text x="528" y="483" font-family="system-ui, 'PingFang SC', sans-serif" font-size="12" fill="#333">Phase 1: 刷存在感</text>
  <text x="720" y="483" font-family="system-ui, sans-serif" font-size="11" fill="#999">1-2周</text>
  <line x1="510" y1="486" x2="510" y2="498" stroke="#FFD0D6" stroke-width="2"/>
  <circle cx="510" cy="506" r="8" fill="#FF6B8A"/>
  <text x="528" y="511" font-family="system-ui, 'PingFang SC', sans-serif" font-size="12" fill="#333">Phase 2: 建立连接</text>
  <text x="720" y="511" font-family="system-ui, sans-serif" font-size="11" fill="#999">2-4周</text>
  <line x1="510" y1="514" x2="510" y2="526" stroke="#FFD0D6" stroke-width="2"/>
  <circle cx="510" cy="534" r="8" fill="#FFB0BA"/>
  <text x="528" y="539" font-family="system-ui, 'PingFang SC', sans-serif" font-size="12" fill="#333">Phase 3: 深入了解</text>
  <text x="720" y="539" font-family="system-ui, sans-serif" font-size="11" fill="#999">3-6周</text>
  <line x1="510" y1="542" x2="510" y2="554" stroke="#FFD0D6" stroke-width="2"/>
  <text x="528" y="563" font-family="system-ui, 'PingFang SC', sans-serif" font-size="11" fill="#ccc">Phase 4-5: 线下见面 → 关系升温...</text>
</svg>
